<?xml version="1.0" encoding="UTF-8" standalone="no"?>
<!DOCTYPE svg PUBLIC "-//W3C//DTD SVG 1.1//EN"
 "http://www.w3.org/Graphics/SVG/1.1/DTD/svg11.dtd">
<!-- Generated by graphviz version 2.38.0 (20140413.2041)
 -->
<!-- Title: Tree Pages: 1 -->
<svg width="1190pt" height="433pt"
 viewBox="0.00 0.00 1189.50 433.00" xmlns="http://www.w3.org/2000/svg" xmlns:xlink="http://www.w3.org/1999/xlink">
<g id="graph0" class="graph" transform="scale(1 1) rotate(0) translate(4 429)">
<title>Tree</title>
<polygon fill="white" stroke="none" points="-4,4 -4,-429 1185.5,-429 1185.5,4 -4,4"/>
<!-- 0 -->
<g id="node1" class="node"><title>0</title>
<path fill="#f0b78e" stroke="black" d="M678.5,-425C678.5,-425 547.5,-425 547.5,-425 541.5,-425 535.5,-419 535.5,-413 535.5,-413 535.5,-354 535.5,-354 535.5,-348 541.5,-342 547.5,-342 547.5,-342 678.5,-342 678.5,-342 684.5,-342 690.5,-348 690.5,-354 690.5,-354 690.5,-413 690.5,-413 690.5,-419 684.5,-425 678.5,-425"/>
<text text-anchor="start" x="556" y="-409.8" font-family="Helvetica,sans-Serif" font-size="14.00">salary ≤ 224500.0</text>
<text text-anchor="start" x="579.5" y="-394.8" font-family="Helvetica,sans-Serif" font-size="14.00">gini = 0.42</text>
<text text-anchor="start" x="557" y="-379.8" font-family="Helvetica,sans-Serif" font-size="14.00">samples = 19270</text>
<text text-anchor="start" x="543.5" y="-364.8" font-family="Helvetica,sans-Serif" font-size="14.00">value = [13480, 5790]</text>
<text text-anchor="start" x="564.5" y="-349.8" font-family="Helvetica,sans-Serif" font-size="14.00">class = Not quit</text>
</g>
<!-- 1 -->
<g id="node2" class="node"><title>1</title>
<path fill="#f1bc96" stroke="black" d="M560.5,-306C560.5,-306 429.5,-306 429.5,-306 423.5,-306 417.5,-300 417.5,-294 417.5,-294 417.5,-235 417.5,-235 417.5,-229 423.5,-223 429.5,-223 429.5,-223 560.5,-223 560.5,-223 566.5,-223 572.5,-229 572.5,-235 572.5,-235 572.5,-294 572.5,-294 572.5,-300 566.5,-306 560.5,-306"/>
<text text-anchor="start" x="442" y="-290.8" font-family="Helvetica,sans-Serif" font-size="14.00">salary ≤ 62500.0</text>
<text text-anchor="start" x="457.5" y="-275.8" font-family="Helvetica,sans-Serif" font-size="14.00">gini = 0.435</text>
<text text-anchor="start" x="439" y="-260.8" font-family="Helvetica,sans-Serif" font-size="14.00">samples = 16506</text>
<text text-anchor="start" x="425.5" y="-245.8" font-family="Helvetica,sans-Serif" font-size="14.00">value = [11230, 5276]</text>
<text text-anchor="start" x="446.5" y="-230.8" font-family="Helvetica,sans-Serif" font-size="14.00">class = Not quit</text>
</g>
<!-- 0&#45;&gt;1 -->
<g id="edge1" class="edge"><title>0&#45;&gt;1</title>
<path fill="none" stroke="black" d="M572.06,-341.907C562.725,-332.651 552.721,-322.732 543.117,-313.209"/>
<polygon fill="black" stroke="black" points="545.433,-310.576 535.867,-306.021 540.504,-315.547 545.433,-310.576"/>
<text text-anchor="middle" x="535.974" y="-327.321" font-family="Helvetica,sans-Serif" font-size="14.00">True</text>
</g>
<!-- 8 -->
<g id="node9" class="node"><title>8</title>
<path fill="#eb9e66" stroke="black" d="M788,-306C788,-306 674,-306 674,-306 668,-306 662,-300 662,-294 662,-294 662,-235 662,-235 662,-229 668,-223 674,-223 674,-223 788,-223 788,-223 794,-223 800,-229 800,-235 800,-235 800,-294 800,-294 800,-300 794,-306 788,-306"/>
<text text-anchor="start" x="674" y="-290.8" font-family="Helvetica,sans-Serif" font-size="14.00">salary ≤ 274500.0</text>
<text text-anchor="start" x="693.5" y="-275.8" font-family="Helvetica,sans-Serif" font-size="14.00">gini = 0.303</text>
<text text-anchor="start" x="679.5" y="-260.8" font-family="Helvetica,sans-Serif" font-size="14.00">samples = 2764</text>
<text text-anchor="start" x="670" y="-245.8" font-family="Helvetica,sans-Serif" font-size="14.00">value = [2250, 514]</text>
<text text-anchor="start" x="682.5" y="-230.8" font-family="Helvetica,sans-Serif" font-size="14.00">class = Not quit</text>
</g>
<!-- 0&#45;&gt;8 -->
<g id="edge8" class="edge"><title>0&#45;&gt;8</title>
<path fill="none" stroke="black" d="M653.94,-341.907C663.275,-332.651 673.279,-322.732 682.883,-313.209"/>
<polygon fill="black" stroke="black" points="685.496,-315.547 690.133,-306.021 680.567,-310.576 685.496,-315.547"/>
<text text-anchor="middle" x="690.026" y="-327.321" font-family="Helvetica,sans-Serif" font-size="14.00">False</text>
</g>
<!-- 2 -->
<g id="node3" class="node"><title>2</title>
<path fill="#eead7f" stroke="black" d="M278,-187C278,-187 164,-187 164,-187 158,-187 152,-181 152,-175 152,-175 152,-116 152,-116 152,-110 158,-104 164,-104 164,-104 278,-104 278,-104 284,-104 290,-110 290,-116 290,-116 290,-175 290,-175 290,-181 284,-187 278,-187"/>
<text text-anchor="start" x="177" y="-171.8" font-family="Helvetica,sans-Serif" font-size="14.00">seniority ≤ 6.5</text>
<text text-anchor="start" x="183.5" y="-156.8" font-family="Helvetica,sans-Serif" font-size="14.00">gini = 0.385</text>
<text text-anchor="start" x="169.5" y="-141.8" font-family="Helvetica,sans-Serif" font-size="14.00">samples = 2887</text>
<text text-anchor="start" x="160" y="-126.8" font-family="Helvetica,sans-Serif" font-size="14.00">value = [2136, 751]</text>
<text text-anchor="start" x="172.5" y="-111.8" font-family="Helvetica,sans-Serif" font-size="14.00">class = Not quit</text>
</g>
<!-- 1&#45;&gt;2 -->
<g id="edge2" class="edge"><title>1&#45;&gt;2</title>
<path fill="none" stroke="black" d="M417.216,-230.285C380.314,-214.528 336.315,-195.74 299.343,-179.953"/>
<polygon fill="black" stroke="black" points="300.674,-176.716 290.103,-176.008 297.925,-183.153 300.674,-176.716"/>
</g>
<!-- 5 -->
<g id="node6" class="node"><title>5</title>
<path fill="#f2c09c" stroke="black" d="M556,-187C556,-187 434,-187 434,-187 428,-187 422,-181 422,-175 422,-175 422,-116 422,-116 422,-110 428,-104 434,-104 434,-104 556,-104 556,-104 562,-104 568,-110 568,-116 568,-116 568,-175 568,-175 568,-181 562,-187 556,-187"/>
<text text-anchor="start" x="438" y="-171.8" font-family="Helvetica,sans-Serif" font-size="14.00">salary ≤ 182500.0</text>
<text text-anchor="start" x="457.5" y="-156.8" font-family="Helvetica,sans-Serif" font-size="14.00">gini = 0.444</text>
<text text-anchor="start" x="439" y="-141.8" font-family="Helvetica,sans-Serif" font-size="14.00">samples = 13619</text>
<text text-anchor="start" x="430" y="-126.8" font-family="Helvetica,sans-Serif" font-size="14.00">value = [9094, 4525]</text>
<text text-anchor="start" x="446.5" y="-111.8" font-family="Helvetica,sans-Serif" font-size="14.00">class = Not quit</text>
</g>
<!-- 1&#45;&gt;5 -->
<g id="edge5" class="edge"><title>1&#45;&gt;5</title>
<path fill="none" stroke="black" d="M495,-222.907C495,-214.649 495,-205.864 495,-197.302"/>
<polygon fill="black" stroke="black" points="498.5,-197.021 495,-187.021 491.5,-197.021 498.5,-197.021"/>
</g>
<!-- 3 -->
<g id="node4" class="node"><title>3</title>
<path fill="#eeab7b" stroke="black" d="M126,-68C126,-68 12,-68 12,-68 6,-68 0,-62 0,-56 0,-56 0,-12 0,-12 0,-6 6,-0 12,-0 12,-0 126,-0 126,-0 132,-0 138,-6 138,-12 138,-12 138,-56 138,-56 138,-62 132,-68 126,-68"/>
<text text-anchor="start" x="31.5" y="-52.8" font-family="Helvetica,sans-Serif" font-size="14.00">gini = 0.376</text>
<text text-anchor="start" x="17.5" y="-37.8" font-family="Helvetica,sans-Serif" font-size="14.00">samples = 2334</text>
<text text-anchor="start" x="8" y="-22.8" font-family="Helvetica,sans-Serif" font-size="14.00">value = [1749, 585]</text>
<text text-anchor="start" x="20.5" y="-7.8" font-family="Helvetica,sans-Serif" font-size="14.00">class = Not quit</text>
</g>
<!-- 2&#45;&gt;3 -->
<g id="edge3" class="edge"><title>2&#45;&gt;3</title>
<path fill="none" stroke="black" d="M164.401,-103.726C150.98,-94.0582 136.695,-83.767 123.376,-74.172"/>
<polygon fill="black" stroke="black" points="125.384,-71.305 115.224,-68.2996 121.292,-76.9846 125.384,-71.305"/>
</g>
<!-- 4 -->
<g id="node5" class="node"><title>4</title>
<path fill="#f0b78e" stroke="black" d="M274,-68C274,-68 168,-68 168,-68 162,-68 156,-62 156,-56 156,-56 156,-12 156,-12 156,-6 162,-0 168,-0 168,-0 274,-0 274,-0 280,-0 286,-6 286,-12 286,-12 286,-56 286,-56 286,-62 280,-68 274,-68"/>
<text text-anchor="start" x="187.5" y="-52.8" font-family="Helvetica,sans-Serif" font-size="14.00">gini = 0.42</text>
<text text-anchor="start" x="173.5" y="-37.8" font-family="Helvetica,sans-Serif" font-size="14.00">samples = 553</text>
<text text-anchor="start" x="164" y="-22.8" font-family="Helvetica,sans-Serif" font-size="14.00">value = [387, 166]</text>
<text text-anchor="start" x="172.5" y="-7.8" font-family="Helvetica,sans-Serif" font-size="14.00">class = Not quit</text>
</g>
<!-- 2&#45;&gt;4 -->
<g id="edge4" class="edge"><title>2&#45;&gt;4</title>
<path fill="none" stroke="black" d="M221,-103.726C221,-95.5175 221,-86.8595 221,-78.56"/>
<polygon fill="black" stroke="black" points="224.5,-78.2996 221,-68.2996 217.5,-78.2996 224.5,-78.2996"/>
</g>
<!-- 6 -->
<g id="node7" class="node"><title>6</title>
<path fill="#f2c19e" stroke="black" d="M438,-68C438,-68 316,-68 316,-68 310,-68 304,-62 304,-56 304,-56 304,-12 304,-12 304,-6 310,-0 316,-0 316,-0 438,-0 438,-0 444,-0 450,-6 450,-12 450,-12 450,-56 450,-56 450,-62 444,-68 438,-68"/>
<text text-anchor="start" x="339.5" y="-52.8" font-family="Helvetica,sans-Serif" font-size="14.00">gini = 0.448</text>
<text text-anchor="start" x="321" y="-37.8" font-family="Helvetica,sans-Serif" font-size="14.00">samples = 11249</text>
<text text-anchor="start" x="312" y="-22.8" font-family="Helvetica,sans-Serif" font-size="14.00">value = [7443, 3806]</text>
<text text-anchor="start" x="328.5" y="-7.8" font-family="Helvetica,sans-Serif" font-size="14.00">class = Not quit</text>
</g>
<!-- 5&#45;&gt;6 -->
<g id="edge6" class="edge"><title>5&#45;&gt;6</title>
<path fill="none" stroke="black" d="M451.061,-103.726C441.036,-94.423 430.389,-84.5428 420.386,-75.2612"/>
<polygon fill="black" stroke="black" points="422.595,-72.5362 412.884,-68.2996 417.834,-77.6673 422.595,-72.5362"/>
</g>
<!-- 7 -->
<g id="node8" class="node"><title>7</title>
<path fill="#f0b88f" stroke="black" d="M594,-68C594,-68 480,-68 480,-68 474,-68 468,-62 468,-56 468,-56 468,-12 468,-12 468,-6 474,-0 480,-0 480,-0 594,-0 594,-0 600,-0 606,-6 606,-12 606,-12 606,-56 606,-56 606,-62 600,-68 594,-68"/>
<text text-anchor="start" x="499.5" y="-52.8" font-family="Helvetica,sans-Serif" font-size="14.00">gini = 0.423</text>
<text text-anchor="start" x="485.5" y="-37.8" font-family="Helvetica,sans-Serif" font-size="14.00">samples = 2370</text>
<text text-anchor="start" x="476" y="-22.8" font-family="Helvetica,sans-Serif" font-size="14.00">value = [1651, 719]</text>
<text text-anchor="start" x="488.5" y="-7.8" font-family="Helvetica,sans-Serif" font-size="14.00">class = Not quit</text>
</g>
<!-- 5&#45;&gt;7 -->
<g id="edge7" class="edge"><title>5&#45;&gt;7</title>
<path fill="none" stroke="black" d="M510.639,-103.726C513.893,-95.2439 517.33,-86.2819 520.61,-77.7312"/>
<polygon fill="black" stroke="black" points="523.914,-78.8898 524.228,-68.2996 517.378,-76.3829 523.914,-78.8898"/>
</g>
<!-- 9 -->
<g id="node10" class="node"><title>9</title>
<path fill="#eda672" stroke="black" d="M788,-187C788,-187 674,-187 674,-187 668,-187 662,-181 662,-175 662,-175 662,-116 662,-116 662,-110 668,-104 674,-104 674,-104 788,-104 788,-104 794,-104 800,-110 800,-116 800,-116 800,-175 800,-175 800,-181 794,-187 788,-187"/>
<text text-anchor="start" x="682.5" y="-171.8" font-family="Helvetica,sans-Serif" font-size="14.00">seniority ≤ 17.5</text>
<text text-anchor="start" x="693.5" y="-156.8" font-family="Helvetica,sans-Serif" font-size="14.00">gini = 0.349</text>
<text text-anchor="start" x="679.5" y="-141.8" font-family="Helvetica,sans-Serif" font-size="14.00">samples = 1436</text>
<text text-anchor="start" x="670" y="-126.8" font-family="Helvetica,sans-Serif" font-size="14.00">value = [1113, 323]</text>
<text text-anchor="start" x="682.5" y="-111.8" font-family="Helvetica,sans-Serif" font-size="14.00">class = Not quit</text>
</g>
<!-- 8&#45;&gt;9 -->
<g id="edge9" class="edge"><title>8&#45;&gt;9</title>
<path fill="none" stroke="black" d="M731,-222.907C731,-214.649 731,-205.864 731,-197.302"/>
<polygon fill="black" stroke="black" points="734.5,-197.021 731,-187.021 727.5,-197.021 734.5,-197.021"/>
</g>
<!-- 12 -->
<g id="node13" class="node"><title>12</title>
<path fill="#e9965a" stroke="black" d="M1042,-187C1042,-187 928,-187 928,-187 922,-187 916,-181 916,-175 916,-175 916,-116 916,-116 916,-110 922,-104 928,-104 928,-104 1042,-104 1042,-104 1048,-104 1054,-110 1054,-116 1054,-116 1054,-175 1054,-175 1054,-181 1048,-187 1042,-187"/>
<text text-anchor="start" x="928" y="-171.8" font-family="Helvetica,sans-Serif" font-size="14.00">salary ≤ 339500.0</text>
<text text-anchor="start" x="947.5" y="-156.8" font-family="Helvetica,sans-Serif" font-size="14.00">gini = 0.246</text>
<text text-anchor="start" x="933.5" y="-141.8" font-family="Helvetica,sans-Serif" font-size="14.00">samples = 1328</text>
<text text-anchor="start" x="924" y="-126.8" font-family="Helvetica,sans-Serif" font-size="14.00">value = [1137, 191]</text>
<text text-anchor="start" x="936.5" y="-111.8" font-family="Helvetica,sans-Serif" font-size="14.00">class = Not quit</text>
</g>
<!-- 8&#45;&gt;12 -->
<g id="edge12" class="edge"><title>8&#45;&gt;12</title>
<path fill="none" stroke="black" d="M800.071,-231.684C832.969,-216.53 872.468,-198.336 906.499,-182.66"/>
<polygon fill="black" stroke="black" points="908.324,-185.673 915.943,-178.31 905.396,-179.315 908.324,-185.673"/>
</g>
<!-- 10 -->
<g id="node11" class="node"><title>10</title>
<path fill="#eeac7d" stroke="black" d="M742,-68C742,-68 636,-68 636,-68 630,-68 624,-62 624,-56 624,-56 624,-12 624,-12 624,-6 630,-0 636,-0 636,-0 742,-0 742,-0 748,-0 754,-6 754,-12 754,-12 754,-56 754,-56 754,-62 748,-68 742,-68"/>
<text text-anchor="start" x="651.5" y="-52.8" font-family="Helvetica,sans-Serif" font-size="14.00">gini = 0.381</text>
<text text-anchor="start" x="641.5" y="-37.8" font-family="Helvetica,sans-Serif" font-size="14.00">samples = 410</text>
<text text-anchor="start" x="632" y="-22.8" font-family="Helvetica,sans-Serif" font-size="14.00">value = [305, 105]</text>
<text text-anchor="start" x="640.5" y="-7.8" font-family="Helvetica,sans-Serif" font-size="14.00">class = Not quit</text>
</g>
<!-- 9&#45;&gt;10 -->
<g id="edge10" class="edge"><title>9&#45;&gt;10</title>
<path fill="none" stroke="black" d="M715.361,-103.726C712.107,-95.2439 708.67,-86.2819 705.39,-77.7312"/>
<polygon fill="black" stroke="black" points="708.622,-76.3829 701.772,-68.2996 702.086,-78.8898 708.622,-76.3829"/>
</g>
<!-- 11 -->
<g id="node12" class="node"><title>11</title>
<path fill="#eca36e" stroke="black" d="M890,-68C890,-68 784,-68 784,-68 778,-68 772,-62 772,-56 772,-56 772,-12 772,-12 772,-6 778,-0 784,-0 784,-0 890,-0 890,-0 896,-0 902,-6 902,-12 902,-12 902,-56 902,-56 902,-62 896,-68 890,-68"/>
<text text-anchor="start" x="799.5" y="-52.8" font-family="Helvetica,sans-Serif" font-size="14.00">gini = 0.335</text>
<text text-anchor="start" x="785.5" y="-37.8" font-family="Helvetica,sans-Serif" font-size="14.00">samples = 1026</text>
<text text-anchor="start" x="780" y="-22.8" font-family="Helvetica,sans-Serif" font-size="14.00">value = [808, 218]</text>
<text text-anchor="start" x="788.5" y="-7.8" font-family="Helvetica,sans-Serif" font-size="14.00">class = Not quit</text>
</g>
<!-- 9&#45;&gt;11 -->
<g id="edge11" class="edge"><title>9&#45;&gt;11</title>
<path fill="none" stroke="black" d="M770.47,-103.726C779.388,-94.5142 788.853,-84.7364 797.761,-75.5343"/>
<polygon fill="black" stroke="black" points="800.324,-77.919 804.765,-68.2996 795.295,-73.0502 800.324,-77.919"/>
</g>
<!-- 13 -->
<g id="node14" class="node"><title>13</title>
<path fill="#ea985d" stroke="black" d="M1038,-68C1038,-68 932,-68 932,-68 926,-68 920,-62 920,-56 920,-56 920,-12 920,-12 920,-6 926,-0 932,-0 932,-0 1038,-0 1038,-0 1044,-0 1050,-6 1050,-12 1050,-12 1050,-56 1050,-56 1050,-62 1044,-68 1038,-68"/>
<text text-anchor="start" x="947.5" y="-52.8" font-family="Helvetica,sans-Serif" font-size="14.00">gini = 0.262</text>
<text text-anchor="start" x="933.5" y="-37.8" font-family="Helvetica,sans-Serif" font-size="14.00">samples = 1181</text>
<text text-anchor="start" x="928" y="-22.8" font-family="Helvetica,sans-Serif" font-size="14.00">value = [998, 183]</text>
<text text-anchor="start" x="936.5" y="-7.8" font-family="Helvetica,sans-Serif" font-size="14.00">class = Not quit</text>
</g>
<!-- 12&#45;&gt;13 -->
<g id="edge13" class="edge"><title>12&#45;&gt;13</title>
<path fill="none" stroke="black" d="M985,-103.726C985,-95.5175 985,-86.8595 985,-78.56"/>
<polygon fill="black" stroke="black" points="988.5,-78.2996 985,-68.2996 981.5,-78.2996 988.5,-78.2996"/>
</g>
<!-- 14 -->
<g id="node15" class="node"><title>14</title>
<path fill="#e68844" stroke="black" d="M1169.5,-68C1169.5,-68 1080.5,-68 1080.5,-68 1074.5,-68 1068.5,-62 1068.5,-56 1068.5,-56 1068.5,-12 1068.5,-12 1068.5,-6 1074.5,-0 1080.5,-0 1080.5,-0 1169.5,-0 1169.5,-0 1175.5,-0 1181.5,-6 1181.5,-12 1181.5,-12 1181.5,-56 1181.5,-56 1181.5,-62 1175.5,-68 1169.5,-68"/>
<text text-anchor="start" x="1087.5" y="-52.8" font-family="Helvetica,sans-Serif" font-size="14.00">gini = 0.103</text>
<text text-anchor="start" x="1077.5" y="-37.8" font-family="Helvetica,sans-Serif" font-size="14.00">samples = 147</text>
<text text-anchor="start" x="1076.5" y="-22.8" font-family="Helvetica,sans-Serif" font-size="14.00">value = [139, 8]</text>
<text text-anchor="start" x="1076.5" y="-7.8" font-family="Helvetica,sans-Serif" font-size="14.00">class = Not quit</text>
</g>
<!-- 12&#45;&gt;14 -->
<g id="edge14" class="edge"><title>12&#45;&gt;14</title>
<path fill="none" stroke="black" d="M1037.13,-103.726C1049.26,-94.2406 1062.15,-84.1551 1074.22,-74.7159"/>
<polygon fill="black" stroke="black" points="1076.7,-77.2173 1082.43,-68.2996 1072.39,-71.7035 1076.7,-77.2173"/>
</g>
</g>
</svg>
